<?xml version="1.0" encoding="UTF-8" standalone="no"?>
<!-- Uploaded to: SVG Repo, www.svgrepo.com, Generator: SVG Repo Mixer Tools -->

<svg style="width: 75px;" viewBox="-2 -30 170 167" version="1.1" preserveAspectRatio="xMidYMid" xml:space="preserve" xmlns="http://www.w3.org/2000/svg" xmlns:svg="http://www.w3.org/2000/svg">
   <path class="bullet" d="m 51.4975,-28.5 a 15,15 0 0 0 -15,15 v 133.84 a 15,15 0 0 0 15,15 h 60.845 a 15,15 0 0 0 15,-15 V -13.5 a 15,15 0 0 0 -15,-15 z M 50.558125,0.421875 H 95.086875 102.21 113.28187 V 106.41813 H 109.205 c 0,-7.633321 -0.82888,-16.881326 -4.65438,-24.65438 C 100.72514,73.990696 93.279239,67.806875 81.92,67.806875 c -11.359241,0 -18.803257,6.183821 -22.62875,13.956875 C 55.465756,89.536804 54.635,98.784808 54.635,106.41813 H 50.558125 Z M 81.92,25.779375 c -9.892263,0 -17.980625,8.088362 -17.980625,17.980625 0,9.892262 8.088362,17.98 17.980625,17.98 9.892263,0 17.980625,-8.087738 17.980625,-17.98 0,-9.892263 -8.088362,-17.980625 -17.980625,-17.980625 z m 0,6.4 c 6.433457,0 11.58,5.147167 11.58,11.580625 0,6.433457 -5.146543,11.58 -11.58,11.58 -6.433458,0 -11.58,-5.146543 -11.58,-11.58 0,-6.433458 5.146542,-11.580625 11.58,-11.580625 z m 0,42.0275 c 9.21824,0 13.816454,4.140498 16.88875,10.383125 3.0723,6.242626 3.99625,14.701675 3.99625,21.82813 H 101.37188 94.131875 61.035 C 61.035,99.291675 61.960828,90.832626 65.033125,84.59 68.105422,78.347373 72.701759,74.206875 81.92,74.206875 Z" />
</svg>