<svg style="width: 75px;" viewBox="-2 -30 170 167">
   <path class="bullet" d="m 15,7.9975 a 15,15 0 0 0 -15,15 v 60.845 a 15,15 0 0 0 15,15 h 133.84 a 15,15 0 0 0 15,-15 v -60.845 a 15,15 0 0 0 -15,-15 z M 28.921875,22.058125 H 134.91813 v 44.52875 c -0.79439,0.467618 -2.01591,1.092023 -3.875,1.795625 -3.85995,1.460853 -10.10267,2.998125 -19.38125,2.998125 -18.124265,0 -37.846973,-10.321875 -58.40438,-10.321875 -10.081174,0 -17.284097,1.752089 -22.02125,3.57625 -0.852847,0.32841 -1.607297,0.66405 -2.314375,0.996875 z M 111.695,24.61125 c -8.25831,0 -15.023125,6.762933 -15.023125,15.02125 0,8.258318 6.764815,15.021875 15.023125,15.021875 8.25832,0 15.02187,-6.763557 15.02188,-15.021875 0,-8.258317 -6.76356,-15.02125 -15.02188,-15.02125 z m 0,6.400625 c 4.79951,0 8.62125,3.821119 8.62125,8.620625 0,4.799507 -3.82174,8.623125 -8.62125,8.623125 -4.79951,0 -8.6225,-3.823618 -8.6225,-8.623125 0,-4.799506 3.82299,-8.620625 8.6225,-8.620625 z M 53.2575,67.45875 c 18.29012,0 37.994394,10.3225 58.40438,10.3225 9.98854,0 17.03577,-1.669237 21.64687,-3.414375 0.57041,-0.215879 1.10619,-0.436181 1.60938,-0.656875 V 84.781875 H 28.921875 v -11.91 C 29.676101,72.367284 31.054729,71.562591 33.535,70.6075 37.529592,69.069282 43.914912,67.45875 53.2575,67.45875 Z" />
</svg>
