<?xml version="1.0" encoding="UTF-8" standalone="no"?>
<!-- Uploaded to: SVG Repo, www.svgrepo.com, Generator: SVG Repo Mixer Tools -->

<svg class="bullet" viewBox="-2 -30 170 167" version="1.1" preserveAspectRatio="xMidYMid" xml:space="preserve" xmlns="http://www.w3.org/2000/svg" xmlns:svg="http://www.w3.org/2000/svg">
  <path class="bullet" d="M 81.919995,-28.5 C 36.675335,-28.5 5.0000001e-6,8.17534 5.0000001e-6,53.42 5.0000001e-6,98.66466 36.675335,135.34 81.919995,135.34 127.16466,135.34 163.84,98.66466 163.84,53.42 163.84,8.18094 127.16466,-28.4944 81.919995,-28.5 Z M 119.48973,89.64815 c -1.47015,2.41485 -4.61726,3.16948 -7.02092,1.69933 C 93.233965,79.59192 69.018505,76.93672 40.504425,83.44896 c -2.75023,0.63165 -5.48928,-1.09003 -6.11536,-3.84027 -0.63165,-2.75023 1.08445,-5.48928 3.84026,-6.11535 31.20284,-7.12713 57.97286,-4.05827 79.566655,9.13389 2.40367,1.48133 3.16948,4.61726 1.69375,7.02092 z m 10.0227,-22.29812 c -1.85027,3.00738 -5.78556,3.94647 -8.78733,2.10181 C 98.712065,55.91869 65.139125,52.00018 39.095765,59.90428 c -3.37629,1.02296 -6.94265,-0.88319 -7.97119,-4.25391 -1.01737,-3.37631 0.88879,-6.93706 4.2595,-7.9656 29.74945,-9.0277 66.737825,-4.6564 92.020955,10.88353 3.00737,1.85025 3.95765,5.77996 2.1074,8.78173 z M 130.37326,44.1184 C 103.96658,28.43873 60.410065,26.99654 35.199615,34.64353 c -4.0471,1.22977 -8.32895,-1.05649 -9.55315,-5.10358 -1.22418,-4.0471 1.05649,-8.32895 5.10918,-9.55873 28.93891,-8.78173 77.040015,-7.088 107.437895,10.9562 3.63903,2.1633 4.83526,6.86441 2.67757,10.49783 -2.15211,3.64462 -6.8644,4.84645 -10.49785,2.68315 z" />
</svg>
