<?xml version="1.0" encoding="UTF-8" standalone="no"?>
<!-- Uploaded to: SVG Repo, www.svgrepo.com, Generator: SVG Repo Mixer Tools -->

<svg
   width="506.48788"
   height="512"
   viewBox="0 -28.5 162.07612 163.84"
   version="1.1"
   preserveAspectRatio="xMidYMid"
   id="svg1"
   xml:space="preserve"
   xmlns="http://www.w3.org/2000/svg"
   xmlns:svg="http://www.w3.org/2000/svg"><defs
     id="defs1" /><path
     d="M 80.89816,-28.5 C 38.25251,-28.5 3.3175,4.68256 0,46.84895 l 43.50985,18.1538 a 22.672933,22.672933 0 0 1 12.93191,-4.03039 c 0.43178,0 0.85849,0.0121 1.27887,0.0355 L 77.07227,32.7015 v -0.39632 c 0,-17.03255 13.73217,-30.89324 30.61277,-30.89324 16.87998,0 30.61213,13.86069 30.61213,30.89324 0,17.03193 -13.73215,30.89829 -30.61213,30.89829 -0.23425,0 -0.46217,-0.006 -0.69515,-0.0114 L 79.39072,83.05716 c 0.0177,0.36847 0.0291,0.7363 0.0291,1.09844 0,12.79136 -10.30894,23.19462 -22.9781,23.19462 -11.12121,0 -20.42603,-8.0139 -22.52858,-18.62103 L 2.79198,75.74408 c 9.63784,34.38611 40.94513,59.59592 78.10615,59.59592 44.83558,0 81.17799,-36.68113 81.17799,-81.92 0,-45.24394 -36.34241,-81.92 -81.17799,-81.92 z M 50.87166,95.79975 40.90081,91.64148 c 1.76447,3.71445 4.82493,6.82175 8.88443,8.52799 8.773,3.69103 18.88946,-0.50839 22.5463,-9.3694 A 17.445345,17.445345 0 0 0 72.36064,77.4826 C 70.60818,73.18379 67.29638,69.83084 63.05013,68.04357 58.82728,66.27403 54.30624,66.33798 50.33411,67.85111 l 10.30386,4.29882 c 6.47166,2.72237 9.5321,10.22155 6.83378,16.75208 -2.69261,6.5299 -10.12849,9.62011 -16.60013,6.89774 z m 77.21218,-63.4946 c 0,-11.3485 -9.15287,-20.58874 -20.39689,-20.58874 -11.24974,0 -20.40261,9.24024 -20.40261,20.58874 0,11.34912 9.15287,20.58367 20.40261,20.58367 11.24402,0 20.39689,-9.23455 20.39689,-20.58367 z m -35.68841,-0.0348 c 0,-8.53939 6.86291,-15.46055 15.32127,-15.46055 8.46341,0 15.32632,6.92116 15.32632,15.46055 0,8.53939 -6.86291,15.46118 -15.32696,15.46118 -8.45772,0 -15.32125,-6.92179 -15.32125,-15.46055 z"
     fill="#1a1918"
     id="path1-4"
     style="display:inline;fill:#000000;stroke-width:3.08875" /></svg>
