<?xml version="1.0" encoding="UTF-8" standalone="no"?>
<!-- Uploaded to: SVG Repo, www.svgrepo.com, Generator: SVG Repo Mixer Tools -->

<svg
   width="512"
   height="512"
   viewBox="0 -28.5 163.84 163.84"
   version="1.1"
   preserveAspectRatio="xMidYMid"
   id="svg1"
   xml:space="preserve"
   xmlns="http://www.w3.org/2000/svg"
   xmlns:svg="http://www.w3.org/2000/svg"><defs
     id="defs1" /><path
     id="path6"
     style="display:inline;fill:#000000;stroke-width:60.4724;stroke-linejoin:round;stroke-miterlimit:50;paint-order:fill markers stroke"
     d="M 85.892875,-28.49985 V 83.725115 h -0.0143 a 23.630846,23.630846 0 0 1 -23.61565,23.476305 23.630846,23.630846 0 0 1 -23.63074,-23.630745 23.630846,23.630846 0 0 1 23.63074,-23.63091 23.630846,23.630846 0 0 1 6.91387,1.04244 v -28.70468 a 51.769308,51.769308 0 0 0 -6.91387,-0.4762 51.769308,51.769308 0 0 0 -51.76932,51.76935 A 51.769308,51.769308 0 0 0 62.262925,135.34 51.769308,51.769308 0 0 0 114.02846,83.725115 h 0.003 v -0.15458 -57.32637 c 11.38638,8.17699 25.11526,12.67107 39.31494,12.6711 v -28.10032 c -10.42694,0 -20.42691,-4.14207 -27.79988,-11.51504 C 118.17355,-8.073065 114.03149,-18.073025 114.03151,-28.5 H 85.931325 Z" /></svg>
